<?xml version="1.0" encoding="UTF-8" standalone="no"?>
<!-- Generator: Adobe Illustrator 19.1.0, SVG Export Plug-In . SVG Version: 6.00 Build 0)  -->
<svg id="Layer_1" style="enable-background:new 0 0 121 50" xmlns="http://www.w3.org/2000/svg" xml:space="preserve" viewBox="0 0 121 50" version="1.1" y="0px" x="0px" xmlns:xlink="http://www.w3.org/1999/xlink">
<style type="text/css">
	.st0{fill:#202020;}
	.st1{fill:#FFFFFF;}
	.st2{fill:#545454;}
</style>
	<path class="st0" d="m42.3 3872.9h30.4v31h-30.4v-31m2.2 4.9c1.4 6.3 2.6 12.7 3.9 19 0.2 0.8 0.1 1.8 0.8 2.3 1.3 0.2 2.7 0.2 4 0.1 0.7 0 0.9-0.8 1-1.4 0.9-4.5 1.9-9 2.8-13.5 0.1-0.4 0.2-0.8 0.4-1.2 1.1 4.8 2.1 9.7 3.1 14.5 0.1 0.5 0.2 1.2 0.7 1.5 1.4 0.2 2.9 0.2 4.4 0 0.5-0.3 0.5-0.9 0.7-1.5 1.3-6.6 2.6-13.2 4-19.8h-3.8c-1 5.7-1.8 11.5-2.9 17.2-1.3-4.8-2.1-9.8-3.2-14.7-0.2-0.8-0.1-2.1-1.1-2.5-1.1-0.1-2.2-0.1-3.4 0-0.6 0.1-0.8 0.8-0.9 1.3-1 4.9-2.1 9.7-3.1 14.5-0.1 0.5-0.3 0.9-0.4 1.3-1-5.7-2-11.5-2.9-17.2-1.3 0.1-2.7 0.1-4.1 0.1z"/>
	<path class="st1" d="m72.6 3872.9h30.1v31h-30.1v-31m7.7 4.7v3.8h5.2v14.1h-5.2v3.8h14.7v-3.8h-5.2v-14.1h5.2v-3.8h-14.7z"/>
	<path class="st0" d="m102.7 3872.9h30.4v31h-30.4v-31m6.9 4.9v21.3h4.2v-8.3h6.8c0.8-0.1 1.8 0.5 1.8 1.4 0.1 2.3 0.3 4.6 0.4 6.9h4c-0.4-2.6 0.1-5.3-0.6-7.8-0.4-1.3-1.9-1.6-3-2 0.9-0.5 2-0.5 2.6-1.3 0.9-1.1 1-2.7 1-4.1 0-1.6 0-3.4-1-4.8-0.8-1.1-2.4-1.3-3.7-1.3h-12.5z"/>
	<path class="st1" d="m133.1 3872.9h30.2v31h-30.2v-31m5.4 4.7v3.8h2.9v14.1h-2.9v3.8h18.3v-7.5h-4v3.7h-7.2v-5.6h5.7v-3.6h-5.7v-4.9h7v3.3h3.9v-7.1h-18z"/>
	<path class="st0" d="m163.3 3872.9h30.7v31h-30.7v-31m6.8 4.9v21.3h10.6c2.2 0 4.7-0.4 6-2.4 1.5-2.5 1.3-5.5 1.6-8.2-0.3-2.8 0-5.8-1.6-8.2-1.2-1.8-3.6-2.3-5.6-2.4-3.6-0.1-7.3-0.1-11-0.1z"/>
	<path class="st0" d="m80.3 3877.6h14.7v3.8h-5.2v14.1h5.2v3.8h-14.7v-3.8h5.2v-14.1h-5.2v-3.8z"/>
	<path class="st0" d="m138.5 3877.6h18v7.1h-3.9v-3.3h-7v4.9h5.7v3.6h-5.7v5.6h7.2v-3.7h4v7.5h-18.3v-3.8h2.9v-14.1h-2.9v-3.8z"/>
	<path class="st1" d="m44.5 3877.8h4.2c0.9 5.7 1.8 11.5 2.9 17.2 0.2-0.4 0.3-0.9 0.4-1.3 1-4.9 2.1-9.7 3.1-14.5 0.1-0.5 0.3-1.3 0.9-1.3 1.1-0.1 2.2-0.1 3.4 0 0.9 0.4 0.8 1.6 1.1 2.5 1.1 4.9 1.9 9.9 3.2 14.7 1.1-5.7 1.9-11.5 2.9-17.2h3.8c-1.4 6.6-2.7 13.2-4 19.8-0.1 0.5-0.2 1.2-0.7 1.5-1.4 0.2-2.9 0.2-4.4 0-0.5-0.3-0.5-0.9-0.7-1.5-1.1-4.8-2-9.7-3.1-14.5-0.2 0.4-0.3 0.8-0.4 1.2-0.9 4.5-1.9 9-2.8 13.5-0.1 0.5-0.3 1.4-1 1.4-1.3 0.1-2.7 0.1-4-0.1-0.7-0.5-0.6-1.5-0.8-2.3-1.4-6.4-2.7-12.8-4-19.1z"/>
	<path class="st1" d="m109.6 3877.8h12.5c1.3 0 2.8 0.2 3.7 1.3 1 1.4 1 3.2 1 4.8 0 1.4-0.1 2.9-1 4.1-0.6 0.8-1.7 0.9-2.6 1.3 1.2 0.3 2.6 0.6 3 2 0.7 2.6 0.3 5.2 0.6 7.8h-4c-0.1-2.3-0.3-4.6-0.4-6.9 0-0.9-1-1.5-1.8-1.4h-6.8v8.3h-4.2v-21.3m4.2 3.5v6.2c2.5 0 5 0.1 7.6-0.1 1.4-0.1 1.4-1.7 1.4-2.7 0-1.1 0.2-2.6-0.9-3.3-2.7-0.2-5.4-0.1-8.1-0.1z"/>
	<path class="st1" d="m170.1 3877.8h11c2.1 0.1 4.4 0.6 5.6 2.4 1.5 2.5 1.3 5.5 1.6 8.2-0.3 2.8 0 5.8-1.6 8.2-1.3 2-3.9 2.4-6 2.4h-10.6v-21.2m4.2 3.5v14.3h6.5c1 0 2.3-0.3 2.8-1.3 0.7-1.6 0.5-3.4 0.6-5.1-0.1-2.1 0.2-4.3-0.5-6.4-0.3-1-1.5-1.5-2.5-1.5h-6.9z"/>
	<path class="st0" d="m113.8 3881.3c2.7 0 5.4-0.1 8.1 0.1 1 0.7 0.8 2.2 0.9 3.3-0.1 1-0.1 2.6-1.4 2.7-2.5 0.1-5 0-7.6 0.1v-6.2z"/>
	<path class="st0" d="m174.3 3881.3h6.8c1 0 2.2 0.5 2.5 1.5 0.7 2 0.4 4.3 0.5 6.4-0.1 1.7 0.1 3.5-0.6 5.1-0.5 1-1.7 1.3-2.8 1.3h-6.5c0.1-4.8 0.1-9.5 0.1-14.3z"/>
		<path class="st2" d="m0 22v-14h28.1v14h-28.1zm17.3-6.4v-0.4c-0.3 0.1-0.6 0.1-0.9 0.1 0 0.1 0 0.1 0.1 0.1s0.2 0 0.3 0.1c0 0.1 0.1 0.2 0.1 0.3v1.4 0.2c0 0.1-0.1 0.1-0.2 0.2h-0.1c-0.1 0-0.1 0-0.1 0.1h1.2c0-0.2 0-0.1-0.3-0.2v-0.3-1.2c0-0.2 0.1-0.4 0.3-0.5s0.5-0.1 0.5 0.3v0.2 1.2c0 0.2 0 0.2-0.2 0.3v0.1h1.2c0-0.1 0-0.1-0.1-0.1s-0.2-0.1-0.2-0.2v-0.1-1.2c0-0.4 0.3-0.6 0.8-0.5 0.1 0.2 0.1 0.4 0.2 0.7v0.9 0.3c0 0.1-0.1 0.2-0.2 0.2h-0.1v0.1h1.2c0-0.1 0-0.1-0.2-0.1-0.1-0.1-0.2-0.2-0.2-0.4v-1.2-0.2c0-0.2-0.1-0.4-0.2-0.5-0.2-0.2-0.6-0.2-0.9-0.1-0.1 0.1-0.3 0.2-0.4 0.3l-0.1 0.1c0-0.1-0.1-0.1-0.1-0.2-0.1-0.2-0.2-0.3-0.4-0.3-0.3 0-0.5 0-0.7 0.2-0.1 0.2-0.2 0.2-0.3 0.3zm-15.7-1.4c0 0.1 0 0.1 0.1 0.1 0.2 0 0.3 0.1 0.3 0.3v0.2 2.3 0.2c0 0.2-0.1 0.3-0.2 0.3h-0.1c-0.1 0-0.1 0-0.1 0.1h1 1.3c0-0.2 0-0.4 0.1-0.5v-0.3h-0.2v0.2c0 0.1-0.1 0.3-0.3 0.3-0.2 0.1-0.5 0.1-0.7 0-0.1 0-0.1-0.1-0.1-0.1v-0.2-1.1-0.1h0.6c0.3 0 0.3 0.1 0.4 0.4 0 0 0 0.1 0.1 0.1s0.1 0 0.1-0.1v-0.8-0.3h-0.2v0.1c0 0.2-0.1 0.3-0.3 0.3h-0.7v-0.1-1.1c0-0.2 0-0.2 0.1-0.1 0.3 0 0.5 0 0.8 0.1 0 0.1 0.1 0.3 0.1 0.4h0.2v-0.7h-0.1-0.4-1.7c0 0.1-0.1 0.1-0.1 0.1zm9.8 3.5c0-0.1 0-0.1-0.3-0.2v-0.4-1.1c0-0.1 0-0.2 0.1-0.3 0.1-0.2 0.3-0.3 0.6-0.3 0.2 0 0.2 0.1 0.3 0.3s0.1 0.4 0 0.6v0.9c0 0.2-0.1 0.2-0.2 0.3v0.1h1.3c0-0.1 0-0.1-0.1-0.1-0.2 0-0.3-0.1-0.3-0.3v-0.3-1-0.3c-0.1-0.3-0.2-0.5-0.5-0.5-0.3-0.1-0.6 0-0.9 0.3l-0.1 0.1v-0.4c-0.3 0.1-0.6 0.1-0.9 0.1 0 0 0 0.1 0.1 0.1s0.2 0 0.3 0.1c0 0.1 0.1 0.2 0.1 0.3v1.3c0 0.2 0 0.5-0.1 0.6 0-0.3-0.1-0.2-0.2-0.2s-0.1 0-0.1 0.1c0 0.2 0.5 0.2 0.9 0.2zm4.5-4.5h-0.3v-0.5-0.9-0.2c0-0.3-0.3-0.5-0.6-0.6-0.3 0-0.5 0.1-0.7 0.3l-0.1 0.1v-1.3c-0.2 0-0.5 0.1-0.7 0.1-0.1 0-0.1 0-0.1 0.1h0.1c0.2 0 0.2 0.1 0.2 0.2v0.3 2 0.5h-0.3c0 0.1 0 0.1 0.1 0.1h0.9 0.1c0-0.1 0-0.1-0.2-0.2v-0.3-1c0-0.4 0.4-0.6 0.8-0.4 0 0.1 0.1 0.2 0.1 0.3v1 0.3c0 0.1-0.1 0.2-0.2 0.2s-0.1 0-0.1 0.1h1.1c-0.1-0.1-0.1-0.1-0.1-0.2zm-1.3 4.6h0.2c0.4-0.1 0.6-0.2 0.8-0.5 0.3-0.5 0.2-1-0.1-1.6-0.4-0.4-0.8-0.5-1.2-0.4s-0.7 0.3-0.9 0.7c-0.1 0.3-0.1 0.5-0.1 0.8s0.1 0.5 0.3 0.7c0.4 0.2 0.7 0.3 1 0.3zm-6.3-2.6h-0.2c-0.4 0.1-0.7 0.3-0.9 0.6-0.1 0.4-0.2 0.8 0 1.1 0.1 0.3 0.3 0.6 0.7 0.7 0.2 0.1 0.4 0.1 0.6 0.1 0.5 0 0.8-0.3 1-0.7 0.1-0.3 0.1-0.5 0.1-0.8-0.2-0.6-0.7-1-1.3-1zm3.3-4.8v2.4 0.1c0 0.2-0.1 0.3-0.3 0.3h-0.1v0.1h1.4c0-0.1 0-0.1-0.1-0.1-0.2 0-0.2-0.1-0.3-0.2v-0.2-2.3-0.1h0.6c0.2 0 0.2 0.1 0.2 0.3v0.2h0.1v-0.4-0.3h-2.7v0.6h0.1v-0.2c0-0.2 0.1-0.3 0.3-0.3h0.4c0.3 0.1 0.3 0.1 0.4 0.1zm11.5 6.7v0.5c0.1 0 0.3 0.1 0.4 0.1 0.2 0.1 0.5 0 0.7-0.1 0.5-0.2 0.6-0.9 0.1-1.2-0.1-0.1-0.2-0.2-0.4-0.3-0.1-0.1-0.2-0.1-0.3-0.2s-0.1-0.2-0.1-0.3 0.1-0.2 0.3-0.2 0.3 0 0.4 0.2c0 0.1 0 0.1 0.1 0.2h0.2v-0.5-0.1c-0.2-0.1-0.5-0.1-0.7-0.1-0.4 0-0.7 0.2-0.7 0.9 0.1 0.4 0.4 0.5 0.7 0.7 0.1 0.1 0.2 0.1 0.3 0.2s0.1 0.2 0.1 0.3-0.2 0.2-0.3 0.2c-0.2 0-0.4 0-0.4-0.3 0-0.1 0-0.1-0.1-0.2-0.1 0.2-0.2 0.2-0.3 0.2zm-5.1-4.3l-0.3 0.3c-0.3 0.2-0.7 0.1-0.8-0.3-0.1-0.1-0.1-0.2-0.1-0.4v-0.3h0.1 1.3s0.1 0 0.1-0.1v-0.1c0-0.2-0.1-0.4-0.3-0.6s-0.4-0.2-0.6-0.2c-0.4 0-0.7 0.1-0.9 0.4s-0.3 0.7-0.2 1c0 0.3 0.2 0.5 0.4 0.7 0.5 0.3 1.1 0.2 1.4-0.3l-0.1-0.1c0.1 0 0.1 0 0 0zm8.7 4.7h-0.2-0.4c0-0.2-0.1-0.4-0.1-0.5v-1.3h0.1 0.4 0.1c0-0.1 0-0.2 0.1-0.3h-0.7v-0.5c0-0.2 0-0.2-0.2-0.2h-0.1c0 0.1-0.1 0.2-0.1 0.3-0.1 0.2-0.2 0.3-0.4 0.3h-0.1v0.2h0.3v0.1 1.2 0.4c0 0.3 0.2 0.4 0.5 0.5 0.3 0 0.5 0 0.8-0.1v-0.1zm-20.2-1.6v-0.6c-0.2-0.1-0.5-0.1-0.7-0.1-0.4 0-0.7 0.2-0.9 0.6-0.3 0.6-0.2 1.2 0.1 1.7 0.8 0.5 1.2 0.2 1.6-0.1 0-0.1 0-0.1-0.1-0.2-0.1 0.1-0.2 0.1-0.2 0.2-0.2 0.2-0.6 0.2-0.8-0.3v-0.1c-0.1-0.2-0.1-0.3-0.1-0.5v-0.7c0.1-0.3 0.3-0.5 0.6-0.5 0.1 0 0.2 0.1 0.3 0.2 0 0.1 0 0.1 0.1 0.2v0.2h0.1zm16 1.8c0-0.1 0-0.1-0.1-0.1s-0.2-0.1-0.2-0.2v-0.5-1.6-0.1h-0.1c-0.3 0-0.5 0.1-0.8 0.1-0.1 0-0.1 0-0.1 0.1v0h0.2c0 0.1 0.1 0.3 0.1 0.4v1.2c0 0.3 0 0.6-0.1 0.8 0-0.3-0.1-0.2-0.2-0.2s-0.1 0-0.1 0.1h1.4zm-0.7-3c0.2 0 0.3-0.1 0.3-0.3s-0.1-0.3-0.3-0.3-0.3 0.2-0.3 0.3c0 0.2 0.1 0.3 0.3 0.3z"/>
		<path class="st1" d="m17.3 15.6l0.2-0.2c0.2-0.2 0.5-0.2 0.7-0.2s0.3 0.1 0.4 0.3c0 0 0.1 0.1 0.1 0.2l0.1-0.1c0.1-0.1 0.2-0.2 0.4-0.3 0.3-0.2 0.7-0.1 0.9 0.1 0.1 0.1 0.2 0.3 0.2 0.5v0.2 1.2 0.1c0 0.2 0.1 0.2 0.3 0.2 0.1 0 0.1 0 0.1 0.1h-1.2v-0.1h0.1c0.1 0 0.2-0.1 0.2-0.2v-0.3-0.9c0-0.1 0-0.3-0.1-0.4-0.1-0.2-0.2-0.3-0.5-0.3-0.2 0.1-0.4 0.3-0.4 0.5v1.2 0.1c0 0.1 0.1 0.2 0.2 0.2s0.1 0 0.1 0.1h-1.2v-0.1c0.2-0.1 0.2-0.1 0.2-0.3v-1.2-0.2c-0.1-0.3-0.3-0.3-0.5-0.3-0.2 0.1-0.3 0.3-0.3 0.5v1.2 0.2c0 0.1 0.1 0.2 0.2 0.2s0.1 0 0.1 0.1h-1.2c0-0.1 0-0.1 0.1-0.1h0.1c0.1 0 0.1-0.1 0.2-0.2v-0.2-1.4-0.2c0-0.1-0.1-0.2-0.2-0.2h-0.1c-0.1 0-0.1 0-0.1-0.1 0.3 0 0.6 0 0.9-0.1v0.4z"/>
		<path class="st1" d="m1.6 14.2h0.1 1.7 0.4 0.1v0.7h-0.2v-0.2c0-0.1-0.1-0.2-0.3-0.3h-0.5c-0.1 0-0.1 0-0.1 0.1v1.1 0.1h0.7c0.2 0 0.2-0.1 0.3-0.3v-0.1h0.2v0.3 0.8c0 0.1 0 0.1-0.1 0.1 0 0-0.1 0-0.1-0.1 0-0.3-0.1-0.4-0.4-0.4h-0.6v0.1 1.1 0.2c0 0.1 0.1 0.1 0.1 0.1h0.7c0.2 0 0.2-0.2 0.3-0.3v-0.2h0.2v0.3c0 0.2 0 0.3-0.1 0.5 0 0 0 0.1-0.1 0.1h-1.3-1c0-0.1 0-0.1 0.1-0.1h0.1c0.1 0 0.2-0.1 0.2-0.3v-0.2-2.3-0.2c0-0.2-0.1-0.3-0.3-0.3-0.1-0.2-0.1-0.2-0.1-0.3z"/>
		<path class="st1" d="m11.4 17.7h-1.3c0-0.1 0-0.1 0.1-0.1h0.1c0.1 0 0.2-0.1 0.2-0.2v-0.2-1.3-0.2c0-0.1-0.1-0.2-0.2-0.2h-0.1c-0.1 0-0.1-0.1-0.1-0.1 0.3 0 0.6 0 0.9-0.1v0.4l0.1-0.1c0.2-0.2 0.5-0.3 0.9-0.3 0.3 0.1 0.4 0.3 0.5 0.5v0.3 1 0.3c0 0.2 0.1 0.2 0.3 0.3 0.1 0 0.1 0 0.1 0.1h-1.3v-0.1c0.2 0 0.2-0.1 0.2-0.3v-0.9-0.6c0-0.1-0.1-0.3-0.3-0.3s-0.5 0.1-0.6 0.3c0 0.1-0.1 0.2-0.1 0.3v1.1 0.2c0 0.1 0.1 0.2 0.2 0.2 0.4-0.1 0.4-0.1 0.4 0z"/>
		<path class="st1" d="m15.9 13.2v0.1h-1.1c0-0.1 0-0.1 0.1-0.1s0.2-0.1 0.2-0.2v-0.3-1-0.2c-0.1-0.2-0.2-0.3-0.4-0.2-0.2 0-0.4 0.2-0.4 0.5v1 0.2c0 0.1 0.1 0.2 0.2 0.2s0.1 0 0.1 0.1h-0.1-0.9c-0.1 0-0.1 0-0.1-0.1h0.1c0.1 0 0.2-0.1 0.2-0.2v-0.3-2-0.3c0-0.2-0.1-0.2-0.2-0.2h-0.1c0-0.1 0-0.1 0.1-0.1 0.2 0 0.5-0.1 0.7-0.1v1.3l0.1-0.1c0.2-0.2 0.4-0.3 0.7-0.3s0.5 0.2 0.6 0.6v0.2 0.9 0.3c0 0.1 0.1 0.2 0.2 0.2-0.1 0.1-0.1 0.1 0 0.1z"/>
		<path class="st1" d="m14.6 17.8c-0.4 0-0.6-0.1-0.9-0.3-0.2-0.2-0.3-0.4-0.3-0.7s0-0.6 0.1-0.8c0.1-0.4 0.5-0.6 0.9-0.7 0.2 0 0.5 0 0.7 0.1 0.3 0.1 0.5 0.3 0.6 0.6 0.2 0.4 0.2 0.9-0.1 1.3-0.2 0.3-0.5 0.5-0.8 0.5h-0.2zm-0.6-1.5c0 0.2 0 0.4 0.1 0.6 0 0.2 0.1 0.4 0.2 0.5 0.2 0.2 0.5 0.2 0.7 0 0.1-0.1 0.1-0.2 0.1-0.3 0.1-0.3 0.1-0.6 0-0.9 0-0.2-0.1-0.4-0.3-0.6-0.1-0.2-0.3-0.2-0.5-0.2s-0.3 0.2-0.3 0.3v0.6z"/>
		<path class="st1" d="m8.3 15.2c0.6 0 1.1 0.4 1.2 1 0 0.3 0 0.5-0.1 0.8-0.2 0.5-0.5 0.7-1 0.7-0.2 0-0.4 0-0.6-0.1-0.3-0.1-0.6-0.4-0.7-0.7-0.1-0.4-0.1-0.8 0-1.1 0.2-0.4 0.5-0.6 0.9-0.6h0.3zm-0.6 1.1v0.4 0.2c0 0.2 0.1 0.4 0.2 0.5 0.2 0.3 0.6 0.2 0.8-0.1 0-0.1 0.1-0.1 0.1-0.2 0.1-0.3 0.1-0.6 0-1 0-0.2-0.1-0.4-0.2-0.6s-0.3-0.3-0.5-0.2c-0.2 0-0.3 0.2-0.3 0.4-0.1 0.2-0.1 0.4-0.1 0.6z"/>
		<path class="st1" d="m11.6 10.4h-0.2-0.4c-0.2 0-0.2 0.1-0.3 0.3v0.2h-0.1v-0.6h2.7v0.3 0.4 0h-0.1v-0.2c0-0.2-0.1-0.2-0.2-0.3h-0.6v0.1 2.3 0.2c0 0.1 0.1 0.2 0.3 0.2 0.1 0 0.1 0 0.1 0.1h-1.4v-0.1h0.1c0.2 0 0.3-0.1 0.3-0.3v-0.1c-0.2-0.9-0.2-1.7-0.2-2.5z"/>
		<path class="st1" d="m23.1 17.1h0.2c0 0.1 0 0.1 0.1 0.2 0.1 0.2 0.2 0.3 0.4 0.3 0.1 0 0.2-0.1 0.3-0.2 0-0.1 0-0.2-0.1-0.3s-0.2-0.2-0.3-0.2c-0.1-0.1-0.3-0.2-0.4-0.3-0.3-0.2-0.3-0.7-0.1-1 0.1-0.2 0.3-0.3 0.5-0.3s0.5 0 0.7 0.1v0.1 0.5h-0.2c0-0.1 0-0.1-0.1-0.2s-0.2-0.2-0.4-0.2c-0.1 0-0.3 0.1-0.3 0.2s0 0.3 0.1 0.3c0.1 0.1 0.2 0.1 0.3 0.2s0.3 0.2 0.4 0.3c0.4 0.3 0.3 1-0.1 1.2-0.2 0.1-0.5 0.1-0.7 0.1-0.1 0-0.2-0.1-0.3-0.1v-0.1-0.6z"/>
		<path class="st1" d="m18 12.8c0.1 0 0.1 0 0 0 0.1 0.1 0.1 0.1 0 0.1-0.3 0.5-1 0.6-1.4 0.3-0.3-0.2-0.4-0.4-0.4-0.7-0.1-0.4 0-0.7 0.2-1s0.5-0.4 0.9-0.4c0.2 0 0.4 0.1 0.6 0.2 0.2 0.2 0.3 0.4 0.3 0.6v0.1c0 0.1 0 0.1-0.1 0.1h-1.3-0.1v0.3c0 0.1 0.1 0.3 0.1 0.4 0.2 0.4 0.6 0.4 0.8 0.3s0.3-0.2 0.4-0.3zm-1.3-0.9c0.3 0 0.6 0 0.9-0.1 0-0.2-0.1-0.3-0.2-0.5-0.2-0.2-0.5-0.2-0.6 0-0.1 0.3-0.1 0.4-0.1 0.6z"/>
		<path class="st1" d="m26.7 17.5v0.1c-0.2 0.1-0.5 0.2-0.7 0.1-0.3 0-0.4-0.2-0.5-0.5v-0.4-1.2-0.1h-0.3v-0.2h0.1c0.2 0 0.3-0.2 0.4-0.3 0-0.1 0.1-0.2 0.1-0.3h0.1c0.2 0 0.2 0 0.2 0.2v0.5h0.6c0 0.1 0 0.2-0.1 0.3h-0.1-0.4-0.1v1.3 0.3c0 0.1 0.1 0.2 0.3 0.2h0.2 0.2z"/>
		<path class="st1" d="m6.5 15.9h-0.2v-0.2c0-0.1 0-0.1-0.1-0.2s-0.1-0.2-0.3-0.2c-0.3 0-0.5 0.1-0.6 0.5-0.1 0.2-0.1 0.5 0 0.7 0 0.2 0 0.3 0.1 0.5v0.1c0.2 0.4 0.6 0.4 0.8 0.3 0.1-0.1 0.2-0.1 0.2-0.2 0 0 0 0.1 0.1 0.2-0.2 0.2-0.4 0.4-0.7 0.4-0.5 0-0.9-0.2-1.1-0.7-0.1-0.4-0.1-0.9 0.1-1.3s0.5-0.5 0.9-0.6c0.3 0 0.5 0 0.7 0.1 0.1 0.2 0.1 0.4 0.1 0.6z"/>
		<path class="st1" d="m22.5 17.7h-1.3c0-0.1 0-0.1 0.1-0.1h0.1c0.1 0 0.2-0.1 0.2-0.2v-0.4-1.2-0.2c0-0.1-0.1-0.2-0.2-0.2h-0.1c0-0.1 0-0.1 0.1-0.1 0.3 0 0.5-0.1 0.8-0.1h0.1v0.1 1.6 0.5c0 0.1 0.1 0.2 0.2 0.2v0.1z"/>
		<path class="st1" d="m21.8 14.7c-0.2 0-0.3-0.1-0.3-0.3s0.1-0.3 0.3-0.3 0.3 0.2 0.3 0.3c0.1 0.2-0.1 0.3-0.3 0.3z"/>
		<path class="st2" d="m14 16.3c0-0.2 0-0.4 0.1-0.5 0.1-0.2 0.2-0.3 0.3-0.3 0.2 0 0.4 0 0.5 0.2 0.2 0.2 0.2 0.4 0.3 0.6 0.1 0.3 0.1 0.6 0 0.9 0 0.1-0.1 0.2-0.1 0.3-0.2 0.3-0.5 0.3-0.7 0-0.1-0.1-0.2-0.3-0.2-0.5-0.2-0.3-0.2-0.5-0.2-0.7z"/>
		<path class="st2" d="m7.7 16.3c0-0.2 0-0.4 0.1-0.5 0.1-0.2 0.2-0.3 0.3-0.4 0.2 0 0.4 0 0.5 0.2s0.2 0.4 0.2 0.6c0.1 0.3 0.1 0.6 0 1 0 0.1-0.1 0.2-0.1 0.2-0.2 0.3-0.5 0.3-0.8 0.1-0.1-0.1-0.2-0.3-0.2-0.5v-0.2-0.5z"/>
		<path class="st2" d="m16.7 11.9c0-0.2 0-0.4 0.1-0.5 0.1-0.2 0.5-0.2 0.6 0 0.1 0.1 0.1 0.3 0.2 0.5h-0.9z"/>
		<path d="m81.5 22.4c-0.9-0.1-1.9-0.4-2.8-0.4-4.2 0-8.4 0.1-12.7 0.1-0.3 0-0.6-0.3-0.9-0.6-0.1 0-0.3 0-0.4 0.1-2.2 1.2-4.4 1.3-6.6 0.2-0.2-0.1-0.5 0-0.8 0-1 0.2-2.1 0.4-3.1 0.4-1.5 0-2.6-1-2.8-2.5-0.1-1.6-0.1-3.2-0.1-4.8s0.1-3.1 0.2-4.6c0-0.6-0.2-0.8-0.8-0.7h-0.9c-0.1 0-0.4-0.2-0.4-0.3s0.1-0.3 0.3-0.4 0.5-0.2 0.7-0.2c1.4-0.2 2.2-1 2.5-2.4 0-0.2 0-0.3 0.1-0.4 0.1-0.2 0.3-0.3 0.5-0.4 0.1 0.2 0.4 0.3 0.4 0.5 0 0.5 0 0.9-0.1 1.4 0 0.3 0 0.7-0.1 1h3.4c0.3 0 0.7 0.1 1 0.2 0.3 0 0.5 0 0.8-0.1 1.6-0.7 3.2-0.8 4.7 0 1.9 0.9 3 2.4 3.1 4.5 0.1 0.8-0.5 0.8-1 0.8-2.5 0-4.9-0.1-7.4-0.1-0.9 0-1.1 0.1-1 1 0.1 1.1 0.2 2.2 0.5 3.3 0.6 1.8 2 2.8 3.9 3 1.5 0.1 2.9-0.1 4.2-1 0.1-0.1 0.3-0.1 0.4-0.2 0.1 0 0.1 0.1 0.2 0.1-0.1 0.3-0.2 0.6-0.4 0.8-0.2 0.3-0.5 0.5-0.8 0.7 1.3 0.5 1.9 0.2 1.9-1.1v-16.8c0-0.8-0.3-1.2-1.1-1.3h-0.1c-0.3-0.2-1-0.4-1-0.6 0-0.6 0.6-0.3 1-0.4 0.9-0.3 1.8-0.4 2.6-0.8 0.9-0.4 1-0.4 1 0.7 0.9 0.1 1.8-0.1 2.7-0.5 0.4-0.2 0.8-0.3 1.1-0.4v1.1c0 2.3-0.1 4.6-0.1 6.8 0 0.4 0.2 0.6 0.6 0.5 1-0.2 2-0.4 2.9-0.6 0.5-0.1 0.7-0.2 0.7 0.5-0.1 3.9-0.1 7.9-0.1 11.8 0 1 0.2 1.2 1.2 1-1.3-2.7 0.3-3.6 2.7-4.1-0.3-0.3-0.5-0.4-0.6-0.6-2.8-2.4-2.1-7 1.3-8.4 1.7-0.7 3.5-0.4 5.2 0.2 0.3 0.1 0.6 0.3 0.9 0.3 0.2 0 0.6-0.1 0.7-0.3 0.3-0.5 0.6-1 1.3-1s1 0.5 1.2 1.2c0 0 0.1 0.1 0.2 0.1l0.6-0.3c3-1.5 6.4-0.2 7.7 2.8 0 0.1 0.1 0.1 0.1 0.2 0.6 1.8 0.3 2.2-1.6 2.1-2.3-0.1-4.6-0.1-6.9-0.1-0.4 0-0.7 0.2-0.7 0.6 0.1 1.2 0.1 2.4 0.4 3.5 0.4 1.7 1.7 2.8 3.4 3 2.1 0.3 4.1 0.2 5.5-1.8 0.4-0.6 0.7-1.4 0.7-2.1 0.1-2 0-3.9 0-5.9 0-0.7-0.2-1.1-0.9-1.2-0.1 0-0.2 0-0.2-0.1-0.3-0.2-0.5-0.4-0.8-0.7 0.3-0.1 0.6-0.2 0.9-0.3 0.8-0.2 1.6-0.3 2.4-0.5 0.7-0.2 0.8-0.2 0.8 0.5v1.8c1-0.7 1.8-1.3 2.6-1.9 1.1-0.8 2.2-0.9 3.5-0.5 1.4 0.4 2.4 1.5 2.4 3 0.1 2.6 0.1 5.3 0.1 7.9 0 0.6 0.2 0.8 0.8 0.8 0.7 0 0.9-0.2 0.9-0.9 0-2.8 0.1-5.6 0.2-8.5 0-0.5-0.1-0.7-0.6-0.7h-1c-0.1 0-0.4-0.2-0.4-0.3 0-0.2 0.2-0.4 0.3-0.5 0.3-0.1 0.7-0.2 1-0.3 1.3-0.3 1.9-1.1 2.2-2.4 0-0.1 0-0.2 0.1-0.3 0.1-0.2 0.3-0.4 0.5-0.5 0.2 0.2 0.4 0.4 0.4 0.6 0.1 0.3 0 0.7-0.1 1.1 0 0.4-0.1 0.8-0.1 1.3 1.2-0.1 2.4-0.1 3.5-0.2 0.3 0 0.8 0 0.8 0.2 0.1 0.3 0.1 0.7 0 1-0.1 0.2-0.5 0.3-0.8 0.3-1.2 0-2.5-0.1-3.8-0.2v7.4c0 0.7 0 1.5 0.2 2.2 0.3 1.5 1.4 2.2 2.9 2 0.2 0 0.4-0.1 0.5-0.1 0.3 0 0.5 0 0.8 0.1-0.2 0.2-0.3 0.6-0.6 0.7-0.8 0.2-1.6 0.4-2.4 0.5-0.5 0.1-0.9 0.1-1.3 0.6-0.5 0.7-1.3 0.8-2 0.4s-1-1-0.8-1.9c0.2-0.8 0-1.1-0.9-1.1-2.1-0.1-3.6 1.1-4.1 3.3-0.2 1.3-0.3 2.6-0.4 3.9 0 0.5 0.2 0.7 0.7 0.7 1.1 0 2.3 0.1 3.4 0.1 0.2 0 0.5-0.2 0.7-0.3 3.1-1.8 7.3-0.2 8.2 3.2 0 0.1 0.1 0.1 0.1 0.2 0.3 1.6 0.1 1.7-1.5 1.6-2.4-0.1-4.8-0.1-7.2-0.1-0.2 0-0.5 0.3-0.5 0.5-0.1 1.5 0 2.9 0.6 4.3 0.6 1.3 1.6 2.1 2.9 2.4 1.7 0.4 3.4 0.3 4.9-0.8 0.2-0.1 0.3-0.2 0.8-0.4-0.1 0.4-0.1 0.7-0.3 0.9-2.7 2.9-7.8 3.3-10.1-0.4-0.8-1.3-1.1-2.8-1.1-4.4s0.3-3.2 1.1-4.6c0.2-0.4 0.5-0.8 1-1.4-1.2 0-2.1-0.1-3.1 0-0.1 0-0.3 0.5-0.3 0.8v8.9c0 2 0 4-0.2 6-0.4 3-2.8 5.1-5.7 5.5-1.2 0.2-2.4 0.1-3.5-0.3-0.9-0.4-1.4-1.2-1.2-2.2 0.2-0.7 0.8-1.3 1.7-1.3 1.1 0 1.8 1 1.5 2-0.2 0.8-0.2 1 0.7 1.1 1.7 0.3 3.6-0.8 4-2.5 0.4-1.6 0.4-3.3 0.5-5 0-0.1-0.3-0.4-0.5-0.4-2.7 0-5.5 0-8.2 0.1-0.3 0-0.6 0.1-0.9 0-0.2 0-0.3-0.2-0.4-0.3 0.1-0.1 0.2-0.2 0.4-0.3 0.1-0.1 0.3 0 0.4 0 1.2 0 1.4-0.2 1.4-1.4v-15.8-0.7c0-0.9-0.1-0.9-1-0.7-2.5 0.7-4.7 0.4-6.5-1.7-1.2-1.4-1.5-3.1-1.6-4.8 0-0.3 0-0.6-0.1-1-0.5 0.7-0.8 1.2-1.2 1.6-1.4 1.4-3 1.6-4.8 1.1-1-0.3-1.8 0.1-2.1 0.9s0.3 2 1.2 2.1c1.2 0.2 2.4 0.2 3.5 0.3 0.6 0.1 1.3 0.1 1.9 0.1 3.7 0.5 4.2 4.2 2.3 6.4-0.6 0.7-1.4 1.2-2.2 1.6-2.3 1-4.8 1.1-7.2 0.4-1.7-0.5-2.5-1.7-2.5-3.1 0-1 0.5-1.6 1.3-2.1 0.6-0.4 1.4-0.7 2.1-1 0.2-0.1 0.5-0.2 0.7-0.3 0.1-0.1 0.1-0.2 0.1-0.3zm28.2-6.2c0-1.5-0.1-3-0.2-4.6-0.1-1.2-0.8-2-1.9-2.3-1.5-0.4-2.7 0.2-3.8 1-0.4 0.3-0.6 0.6-0.6 1.2v5.4c0 0.6-0.1 0.9-0.8 1-1.3 0.2-2.4 1.3-2.5 2.5-0.1 2.3-0.1 4.7-0.1 7 0 0.2 0.3 0.5 0.5 0.5 1.3 0.1 2.7 0.1 4 0.2 1.5 0 1.2 0.1 1.3-1.2 0-0.4 0.1-0.8 0.1-1.2 0.2-2.3 1.3-4.2 3.4-5.3 0.4-0.2 0.5-0.5 0.5-0.9 0.1-1.1 0.1-2.2 0.1-3.3zm-25.7 6.3c-1.9 0-2.2 0.1-3.3 1.2-1.9 1.8-1.3 4.4 1.1 5.2 1.9 0.6 3.7 0.3 5.4-0.6 1.3-0.7 1.9-2.1 1.7-3.4-0.3-1.3-1.1-2-2.7-2.2-0.8-0.1-1.5-0.1-2.2-0.2zm2.5-9.6c-0.1-1-0.2-1.7-0.3-2.5 0-0.3-0.1-0.5-0.2-0.7-0.4-1-1-1.4-2-1.4s-1.9 0.6-2.1 1.6c-0.5 1.8-0.5 3.7 0 5.5 0.3 1.1 1.1 1.6 2.2 1.7 1 0 1.8-0.5 2.1-1.6 0.1-0.9 0.1-1.8 0.3-2.6zm-16.9-10.8v0.7 17.1 0.7c0 0.5 0.3 0.7 0.8 0.7 0.8 0.1 1-0.2 1-1.2v-16.6c0-1.2-0.3-1.5-1.8-1.4zm21.5 10.7c0.1 0.1 0.2 0.1 0.2 0.1 2 0 4-0.1 5.9-0.2 0.2 0 0.5-0.4 0.5-0.6-0.2-0.9-0.4-1.8-0.8-2.6-0.8-1.3-2.6-1.6-3.8-0.7-1.3 1-1.8 2.4-2 4zm20.7 19.4c0.2 0 0.3 0.1 0.4 0.1 1.5 0 3.1-0.1 4.6-0.1 0.5 0 1.4 0 1.5-0.3 0.2-0.5-0.1-1.1-0.1-1.7 0-0.1-0.1-0.2-0.1-0.3-0.4-1-1.1-1.8-2.2-2-1.2-0.2-2.2 0.2-2.9 1.2-0.8 0.8-1.1 1.9-1.2 3.1zm-54-19.4c0.1 0.1 0.2 0.1 0.3 0.1 1.9 0 3.9-0.1 5.8-0.2 0.2 0 0.5-0.4 0.4-0.5-0.1-0.8-0.2-1.6-0.6-2.3-0.8-1.6-2.8-2-4.2-0.9-1.2 0.9-1.6 2.3-1.7 3.8zm-0.7-3.2h-3.3c0 3.1-0.1 6.3 0 9.4 0.1 1.6 1.8 2.5 3.2 1.9-2.4-3.7-2.3-7.4 0.1-11.3zm48.6 19.1h-0.9c-0.8-0.1-1 0.3-0.9 1 0.1 0.8 0 1.5 0 2.3v7.6c0 0.6 0.2 1 0.9 1 0.6 0 1-0.2 0.9-0.9 0-0.3 0.1-0.6 0.1-0.9v-9.1c-0.1-0.3-0.1-0.6-0.1-1zm-32-19.2c0 0.3-0.1 0.5-0.1 0.8v9.7c0 0.3 0 0.6 0.1 0.8s0.4 0.5 0.6 0.6c0.8 0.2 1.2-0.2 1.2-1v-9.1c0-1.5-0.2-1.7-1.8-1.8zm26.1 25s0.1 0 0 0c0.1 1.8 0.1 3.7 0.1 5.5 0 0.7 0.4 0.8 1 0.8 0.8 0 0.8-0.6 0.8-1.2v-9.1c0-0.2 0-0.5-0.1-0.7-0.1-0.5-0.9-1.1-1.4-0.9-0.2 0.1-0.3 0.6-0.4 0.9v4.7zm-9.8-24.2c-1.3-0.5-2.2-1.7-3.7-1.9 1.3 1.2 2.3 2.5 2.6 4.3 0.3-0.8 0.7-1.6 1.1-2.4z"/>
		<path d="m41.1 10.3c1-0.8 1.9-1.4 2.8-2 2.4-1.6 5.5-0.2 5.7 2.7 0.2 2.8 0.1 5.6 0.2 8.4v1.3c0 0.5 0.3 0.7 0.7 0.7h0.8c0.1 0 0.3 0.2 0.3 0.3s-0.2 0.3-0.3 0.3c-0.1 0.1-0.3 0-0.5 0h-4.6-0.5c-0.1 0-0.2-0.2-0.2-0.3s0.1-0.2 0.2-0.3c0 0 0.1 0 0.2-0.1 1.6-0.3 1.6-0.3 1.6-1.9v-6.4c0-0.4-0.1-0.9-0.1-1.3-0.2-2.4-2.6-3.1-4.3-2.3-0.1 0-0.2 0.1-0.3 0.1-1.2 0.5-1.9 1.3-1.8 2.8 0.1 2.5 0 5.1 0 7.6 0 1.2 0.1 1.3 1.3 1.4 0.2 0 0.5 0.1 0.7 0.2v0.3c-0.4 0.1-0.7 0.2-1.1 0.2-2.3 0-4.6-0.1-6.9-0.1-0.5 0-1.1 0.1-1.6 0.1-0.2 0-0.4-0.2-0.6-0.3 0.2-0.1 0.3-0.3 0.5-0.3 0.1-0.1 0.3 0 0.5 0 1-0.1 1.1-0.2 1.1-1.2v-9.1c0-1.2-0.1-1.2-1.1-1.6-0.2-0.1-0.4-0.1-0.5-0.2s-0.3-0.3-0.3-0.4c0.1-0.2 0.3-0.4 0.4-0.4 1.2 0 2.3-0.2 3.4-0.7 0.1 0 0.5 0.2 0.5 0.2 0 0.6 0.5 0.5 0.8 0.5 0.8-0.1 1.5-0.3 2.3-0.5 0.2-0.1 0.5-0.1 0.7-0.1 0 0.2 0.1 0.5 0.1 0.7-0.1 0.5-0.1 1.1-0.1 1.7zm-3.9-0.9c0 0.3-0.1 0.5-0.1 0.8v1.5c0 2.9 0 5.8 0.1 8.7 0 0.8 0.4 1.1 1.2 0.9 0.7-0.1 0.6-0.6 0.6-1.1v-9c0-1.4-0.2-1.6-1.8-1.8z"/>
		<path d="m36 3.9c-0.8 0-1.4-0.6-1.4-1.4 0-0.7 0.7-1.5 1.4-1.5s1.4 0.7 1.4 1.4c0.1 0.9-0.6 1.5-1.4 1.5z"/>
		<path d="m76.6 1.2c0.8 0 1.4 0.6 1.4 1.4s-0.6 1.4-1.4 1.4-1.4-0.6-1.4-1.4c0-0.9 0.7-1.4 1.4-1.4z"/>
		<path d="m101.4 22.1c0-0.8 0.7-1.5 1.4-1.5s1.4 0.7 1.4 1.5-0.6 1.4-1.4 1.3c-0.8 0.1-1.4-0.5-1.4-1.3z"/>
</svg>
