<?xml version="1.0" encoding="UTF-8" standalone="no"?>
<!-- Generator: Adobe Illustrator 19.1.0, SVG Export Plug-In . SVG Version: 6.00 Build 0)  -->
<svg id="Layer_1" style="enable-background:new 0 0 100 50" xmlns="http://www.w3.org/2000/svg" xml:space="preserve" viewBox="0 0 100 50" version="1.1" y="0px" x="0px" xmlns:xlink="http://www.w3.org/1999/xlink">
<style type="text/css">
	.st0{fill:#545454;}
	.st1{fill:#FFFFFF;}
</style>
	<path class="st0" d="m0 50v-50h100v50h-100zm61.8-22.8c0-0.5-0.1-1-0.1-1.5-1.1 0.2-2.1 0.4-3.1 0.4 0 0-0.1 0-0.1 0.1-0.1 0.2 0 0.3 0.2 0.4 0.3 0 0.6 0 0.9 0.2 0.1 0.4 0.2 0.8 0.2 1.2v4.9c0 0.3 0 0.5-0.1 0.8s-0.3 0.5-0.6 0.5h-0.4c-0.3 0-0.3 0-0.3 0.3v0.1h4.4c0-0.5 0-0.3-1-0.6 0-0.4-0.1-0.7-0.1-1.1v-4.2c0-0.8 0.4-1.4 1.2-1.7 0.7-0.3 1.6-0.2 1.9 0.9 0.1 0.3 0.1 0.6 0.1 0.9v4.4c0 0.7-0.2 0.9-0.9 1.1-0.1 0-0.1 0.1-0.1 0.1v0.3h4.1c0-0.4 0-0.4-0.3-0.5-0.4-0.1-0.6-0.3-0.7-0.7v-0.3-4.4c0-1.3 1.1-2.2 2.7-1.9 0.4 0.7 0.5 1.5 0.5 2.3v3.2c0 0.3 0 0.7-0.1 1 0 0.5-0.2 0.6-0.7 0.7h-0.2l-0.1 0.1v0.3h4.5c0-0.5 0-0.4-0.8-0.5-0.5-0.3-0.6-0.8-0.6-1.3v-4.1-0.8c-0.1-0.7-0.3-1.3-0.8-1.7-0.8-0.7-2.1-0.8-3.2-0.3-0.5 0.3-0.9 0.7-1.3 1.1l-0.2 0.2-0.3-0.6c-0.4-0.5-0.8-0.9-1.5-1-1-0.2-1.9 0.1-2.6 0.7 0 0.5-0.2 0.7-0.5 1zm-56.2-5.1c-0.1 0.4 0 0.5 0.4 0.5h0.1c0.7 0.1 1.1 0.4 1.2 1.1v0.7 8 0.7c-0.1 0.6-0.3 0.9-0.8 1-0.1 0-0.2 0-0.4 0.1-0.4 0-0.4 0-0.4 0.4v0.1h0.2 3.6 4.8c0.1-0.6 0.2-1.3 0.3-1.9 0-0.3 0.1-0.7 0.1-1h-0.6l-0.1 0.1c-0.1 0.2-0.1 0.5-0.1 0.7-0.1 0.5-0.5 0.9-1 1.1-0.8 0.2-1.7 0.2-2.6 0.1-0.2 0-0.4-0.2-0.5-0.4 0-0.2-0.1-0.4-0.1-0.6v-3.8-0.3h2c1 0.1 1.2 0.3 1.3 1.3 0 0.2 0.1 0.2 0.2 0.2h0.1c0.2 0 0.3-0.1 0.3-0.3v-2.7-0.9h-0.6v0.4c-0.1 0.7-0.3 1.1-0.9 1.1-0.8 0.1-1.5 0-2.3 0v-0.3-3.9c0-0.5 0-0.6 0.5-0.5 0.9 0 1.8 0.1 2.7 0.2l0.3 1.5h0.6v-2.5c0-0.1-0.1-0.1-0.2-0.1h-1.3-6.2c-0.3-0.1-0.4-0.1-0.6-0.1zm34.9 12.6c0-0.5 0-0.3-0.9-0.6 0-0.4-0.1-0.8-0.1-1.3v-3.9c0-0.3 0.1-0.7 0.2-1 0.3-0.8 1.1-1.2 2-1.1 0.6 0.1 0.8 0.5 1 1 0.2 0.7 0.2 1.4 0.2 2.1v3.2c0 0.7-0.2 0.9-0.9 1l-0.1 0.1v0.3h4.5c0-0.4 0-0.4-0.4-0.4-0.6 0-0.9-0.3-0.9-0.9v-1-3.5c0-0.4 0-0.8-0.1-1.1-0.2-1-0.8-1.7-1.8-1.9-1.2-0.3-2.2 0.1-3.1 0.9l-0.5 0.5c0-0.5-0.1-1-0.1-1.5h-0.1c-1 0.2-2 0.4-3 0.4 0 0-0.1 0-0.1 0.1-0.1 0.2 0 0.4 0.2 0.4 0.3 0 0.6 0 0.9 0.2 0.1 0.3 0.2 0.7 0.2 1.1v4.8c0 0.8-0.2 1.6-0.4 2.3-0.1-0.9-0.4-0.6-0.7-0.7-0.2 0-0.3 0.1-0.3 0.3v0.2h4.3zm16.1-16c-0.4 0-0.6-0.1-1-0.1-0.1-0.6-0.2-1.2-0.2-1.7v-3.2c0-0.3 0-0.5-0.1-0.8-0.2-1.1-0.9-1.9-2-2-1-0.1-1.8 0.2-2.5 0.9l-0.3 0.3v-4.8h-0.1c-0.9 0.1-1.7 0.2-2.6 0.3-0.4 0-0.4 0-0.3 0.4v0.1h0.2c0.6 0 0.8 0.2 0.9 0.8 0 0.3 0.1 0.6 0.1 0.9v7.1c0 0.5-0.1 1.1-0.2 1.6-0.3 0-0.7 0-1 0.1-0.1 0.4-0.1 0.4 0.3 0.4h3.2 0.4c0.1-0.5 0-0.3-0.8-0.6-0.1-0.3-0.1-0.7-0.1-1.1v-3.7c0-1.4 1.4-2.2 2.7-1.4 0 0.4 0.2 0.8 0.2 1.2 0 1.2 0 2.4 0.1 3.5v0.9c0 0.4-0.2 0.6-0.6 0.7-0.3 0.1-0.3 0.1-0.3 0.4h4v-0.2zm-4.5 16.2c0.1 0 0.4 0 0.7-0.1 1.3-0.2 2.3-0.8 2.9-1.9 1-1.8 0.9-3.7-0.2-5.6-1.3-1.5-2.8-1.8-4.3-1.6s-2.6 1-3.2 2.5c-0.3 1-0.4 2-0.3 3s0.5 1.8 1.2 2.5c1 0.9 2 1.2 3.2 1.2zm-22.4-9.2c-0.3 0-0.5 0-0.8 0.1-1.4 0.2-2.5 0.9-3.1 2.3-0.5 1.3-0.6 2.7-0.2 4 0.4 1.2 1.2 2.1 2.4 2.5 0.7 0.2 1.3 0.3 2 0.2 1.7-0.2 3-1 3.6-2.6 0.4-0.9 0.4-1.9 0.3-2.9-0.3-2.1-2-3.6-4.2-3.6zm11.7-17.1v0.3 8.3 0.3c0 0.8-0.3 1.1-1.1 1.2h-0.4v0.4h5c0-0.4 0-0.4-0.3-0.4h-0.2c-0.6-0.1-0.9-0.3-0.9-0.9v-0.6-8.3-0.2c0.7 0 1.4 0 2.2 0.1 0.6 0.1 0.8 0.4 0.9 1 0 0.2 0 0.4 0.1 0.6h0.4c0.1 0 0.2 0 0.2-0.2v-1.3-1h-9.5v0.1c0 0.8 0 1.5-0.1 2.3l0.1 0.1h0.5c0-0.2 0-0.4 0.1-0.6 0.1-0.6 0.3-0.9 0.9-1 0.5-0.1 1-0.1 1.5-0.1 0-0.1 0.3-0.1 0.6-0.1zm41 24c0 0.6 0.1 1.2 0.1 1.8 0.5 0.1 0.9 0.3 1.4 0.4 0.9 0.2 1.7 0.2 2.6-0.3 1.6-0.9 2-3.1 0.5-4.3-0.4-0.3-0.9-0.7-1.3-1s-0.7-0.5-1.1-0.8-0.5-0.7-0.4-1.2 0.5-0.8 1-0.8c0.7-0.1 1.1 0.1 1.3 0.6 0.1 0.2 0.2 0.5 0.2 0.8 0 0.1 0.1 0.2 0.1 0.2h0.8v-1.6c0-0.1-0.1-0.2-0.1-0.2-0.8-0.2-1.7-0.4-2.6-0.4-1.3 0.1-2.4 0.9-2.6 3 0.4 1.4 1.6 1.9 2.6 2.7 0.3 0.3 0.7 0.5 1 0.8s0.5 0.8 0.3 1.2-0.5 0.6-1 0.7c-0.8 0.1-1.3-0.1-1.6-0.9-0.1-0.2-0.1-0.4-0.2-0.6 0-0.1-0.1-0.1-0.2-0.1h-0.8zm-18.1-15.4c-0.4 0.3-0.8 0.7-1.2 0.9-1 0.5-2.3 0.5-3-0.9-0.2-0.4-0.3-0.9-0.4-1.3s-0.1-0.7-0.1-1.1h0.3 4.5c0.2 0 0.2 0 0.2-0.2v-0.5c0-0.8-0.4-1.6-1-2.2s-1.3-0.8-2.1-0.8c-1.3 0-2.4 0.4-3.1 1.5-0.8 1.1-0.9 2.4-0.7 3.7 0.2 1 0.7 1.9 1.6 2.5 1.7 1.1 4.1 0.6 5.2-1.1v-0.2c-0.1-0.1-0.1-0.2-0.2-0.3zm30.9 16.6c-0.2 0-0.4 0.1-0.6 0.1h-1.4c-0.2-0.6-0.4-1.2-0.4-1.9v-4.8-0.2h0.2 1.5c0.1 0 0.2 0 0.2-0.1 0.1-0.3 0.2-0.6 0.2-0.9h-2.2v-1.7c0-0.6 0-0.6-0.6-0.6-0.1 0-0.2 0-0.2 0.2-0.1 0.4-0.2 0.7-0.3 1-0.2 0.6-0.7 1.1-1.4 1.2-0.1 0-0.3 0-0.4 0.1-0.1 0-0.1 0.1-0.1 0.1v0.7h1.1v0.3 4.4c0 0.4 0 0.9 0.1 1.3 0.2 0.9 0.7 1.6 1.6 1.7 0.9 0.2 1.8 0 2.7-0.5v-0.4zm-71.9-5.6v-2l-0.1-0.1c-0.9-0.2-1.8-0.4-2.7-0.4-1.4 0.1-2.5 0.8-3.1 2-1 2-0.7 4.1 0.5 6.2 2.8 1.6 4.4 0.9 5.7-0.4 0 0 0.1-0.1 0-0.1-0.1-0.2-0.2-0.4-0.2-0.6-0.3 0.2-0.6 0.5-0.9 0.7-0.9 0.6-2.3 0.6-3-0.9 0-0.1-0.1-0.2-0.1-0.3-0.2-0.6-0.3-1.2-0.4-1.8-0.1-0.9-0.1-1.7 0.1-2.6 0.3-1.2 1-1.7 2.1-1.7 0.4 0 0.8 0.2 1 0.6 0.1 0.2 0.2 0.4 0.2 0.6 0.1 0.2 0.1 0.4 0.2 0.7l0.7 0.1zm57 6.5c0-0.4 0-0.4-0.4-0.4h-0.1c-0.5 0-0.8-0.2-0.8-0.8-0.1-0.6-0.1-1.2-0.1-1.7v-5.8-0.3h-0.3c-1 0.1-1.9 0.2-2.9 0.4-0.3 0-0.3 0-0.2 0.3 0 0.1 0 0.2 0.2 0.2 0.3 0 0.6 0.1 0.9-0.1 0.1 0.4 0.3 0.9 0.3 1.4v4.3c0 1-0.1 2-0.5 2.9 0-1-0.4-0.7-0.6-0.7s-0.3 0.1-0.3 0.3v0.1c1.6-0.1 3.2-0.1 4.8-0.1zm-2.5-10.7c0.7 0 1.2-0.5 1.2-1.2s-0.5-1.2-1.2-1.2-1.2 0.5-1.2 1.2 0.5 1.2 1.2 1.2z"/>
	<path class="st1" d="m61.8 27.2c0.3-0.3 0.5-0.5 0.8-0.7 0.8-0.7 1.6-0.9 2.6-0.7 0.7 0.1 1.1 0.5 1.5 1l0.3 0.6 0.2-0.2c0.4-0.4 0.8-0.8 1.3-1.1 1-0.6 2.4-0.4 3.2 0.3 0.5 0.5 0.7 1.1 0.8 1.7v0.8 4.1 0.4c0.1 0.6 0.4 0.8 1 0.9 0.4 0 0.4 0 0.4 0.4h-4.5v-0.3l0.1-0.1h0.2c0.4-0.1 0.6-0.3 0.7-0.7 0-0.3 0.1-0.7 0.1-1v-3.2c0-0.5-0.1-0.9-0.2-1.4-0.2-0.8-0.9-1.2-1.7-0.9-0.8 0.2-1.3 0.9-1.4 1.8v4.4 0.3c0.1 0.5 0.2 0.6 0.7 0.7 0.3 0.1 0.4 0.1 0.3 0.5h-4.1v-0.3c0-0.1 0.1-0.1 0.1-0.1 0.7-0.2 0.9-0.3 0.9-1.1v-4.4c0-0.3-0.1-0.6-0.1-0.9-0.3-1.2-1.2-1.2-1.9-0.9s-1.1 1-1.2 1.7v4.2c0 0.2 0 0.4 0.1 0.6 0 0.4 0.3 0.6 0.6 0.7 0.4 0.1 0.4 0.1 0.3 0.5h-4.4v-0.1c0-0.3 0-0.3 0.3-0.3h0.4c0.3-0.1 0.5-0.2 0.6-0.5s0.1-0.5 0.1-0.8v-4.9c0-0.2 0-0.5-0.1-0.7-0.1-0.5-0.3-0.6-0.8-0.7h-0.3c-0.2 0-0.3-0.1-0.2-0.4l0.1-0.1c1 0 2.1-0.2 3.1-0.4 0 0.3 0.1 0.8 0.1 1.3z"/>
	<path class="st1" d="m5.6 22.1h0.5 6.2 1.3c0.1 0 0.2 0 0.2 0.1v2.5h-0.6c0-0.2-0.1-0.5-0.1-0.7-0.1-0.5-0.4-0.9-0.9-0.9-0.6-0.1-1.3-0.1-1.9-0.1-0.5 0-0.5 0-0.5 0.5v3.9 0.3h2.3c0.6 0 0.8-0.4 0.9-1.1v-0.4h0.6v0.9 2.7c0 0.2-0.1 0.3-0.3 0.3h-0.1c-0.1 0-0.2 0-0.2-0.2-0.1-1-0.3-1.2-1.3-1.3h-2v0.3 3.8c0 0.2 0 0.4 0.1 0.6 0 0.2 0.2 0.4 0.5 0.4 0.9 0.1 1.7 0.1 2.6-0.1 0.5-0.2 0.9-0.6 1-1.1 0.1-0.2 0.1-0.5 0.1-0.7 0-0.1 0.1-0.1 0.1-0.1h0.6c0 0.4-0.1 0.7-0.1 1-0.1 0.6-0.2 1.2-0.2 1.7 0 0.1-0.1 0.2-0.2 0.2h-4.6-3.6-0.2v-0.1c0-0.4 0-0.3 0.4-0.4 0.1 0 0.3 0 0.4-0.1 0.5-0.1 0.8-0.4 0.8-1v-0.7-8-0.7c-0.1-0.7-0.4-1-1.2-1.1h-0.1c-0.5 0.1-0.5 0.1-0.5-0.4z"/>
	<path class="st1" d="m40.5 34.7h-4.5v-0.2c0-0.2 0.1-0.3 0.3-0.3h0.2c0.5 0 0.8-0.3 0.8-0.8 0-0.3 0.1-0.6 0.1-0.8v-4.8c0-0.2 0-0.4-0.1-0.6-0.1-0.4-0.3-0.6-0.8-0.7h-0.3c-0.2 0-0.3-0.2-0.2-0.4l0.1-0.1c1 0 2-0.2 3-0.4h0.1c0 0.5 0.1 1 0.1 1.5l0.5-0.5c0.9-0.9 1.9-1.2 3.1-0.9 1 0.2 1.6 0.9 1.8 1.9 0.1 0.4 0.1 0.8 0.1 1.1v3.5 1c0 0.6 0.4 0.9 0.9 0.9 0.4 0 0.4 0 0.4 0.4h-4.5v-0.3c0-0.1 0.1-0.1 0.1-0.1 0.7-0.1 0.9-0.3 0.9-1v-3.2c0-0.7 0-1.4-0.2-2.1-0.1-0.5-0.4-0.9-1-1-0.9-0.2-1.7 0.2-2 1.1-0.1 0.3-0.2 0.7-0.2 1v3.9c0 0.3 0 0.5 0.1 0.8 0 0.4 0.3 0.6 0.6 0.6 0.6 0.1 0.6 0.1 0.6 0.5z"/>
	<path class="st1" d="m56.6 18.7v0.4h-4c0-0.4 0-0.4 0.3-0.4 0.4-0.1 0.5-0.3 0.6-0.7 0-0.3 0.1-0.6 0-0.9 0-1.2 0-2.4-0.1-3.5 0-0.2-0.1-0.4-0.1-0.6-0.2-0.8-0.7-1-1.5-0.9-0.7 0.1-1.3 0.8-1.3 1.7v3.7 0.5c0.1 0.4 0.2 0.6 0.6 0.6 0.3 0.1 0.3 0.1 0.3 0.5h-0.4-3.2c-0.4 0-0.4 0-0.3-0.4h0.4c0.4 0 0.7-0.2 0.7-0.7 0-0.3 0.1-0.7 0.1-1v-7.1c0-0.3 0-0.6-0.1-0.9-0.1-0.6-0.3-0.8-0.9-0.8h-0.2v-0.1c0-0.4 0-0.3 0.3-0.4 0.9-0.1 1.7-0.2 2.6-0.3h0.1v4.8l0.3-0.3c0.7-0.7 1.5-1 2.5-0.9 1.1 0.1 1.8 0.8 2 2 0 0.2 0.1 0.5 0.1 0.8v3.2c0 0.4 0 0.7 0.1 1.1 0.1 0.5 0.3 0.6 0.7 0.7 0.1-0.1 0.2-0.1 0.4-0.1z"/>
	<path class="st1" d="m52.1 34.9c-1.3 0-2.3-0.3-3.1-1.1-0.7-0.7-1.1-1.5-1.2-2.5s-0.1-2 0.3-3c0.5-1.5 1.6-2.3 3.2-2.5 0.8-0.1 1.7-0.1 2.5 0.2 1.1 0.4 1.9 1.2 2.3 2.2 0.6 1.6 0.6 3.2-0.3 4.7-0.6 1.1-1.7 1.7-2.9 1.9-0.4 0.1-0.6 0.1-0.8 0.1zm-2.2-5.2c0 0.7 0.1 1.5 0.2 2.2s0.4 1.3 0.9 1.9c0.8 0.8 2 0.7 2.6-0.2 0.2-0.3 0.3-0.6 0.4-0.9 0.3-1.1 0.3-2.2 0.1-3.4-0.1-0.8-0.4-1.5-0.9-2.2-0.5-0.5-1.1-0.8-1.8-0.6-0.7 0.1-1 0.6-1.2 1.2s-0.3 1.3-0.3 2z"/>
	<path class="st1" d="m29.7 25.7c2.2 0 3.9 1.5 4.3 3.6 0.2 1 0.1 2-0.3 2.9-0.6 1.6-1.9 2.5-3.6 2.6-0.7 0.1-1.4 0-2-0.2-1.2-0.4-2-1.3-2.4-2.5-0.4-1.4-0.4-2.7 0.2-4 0.6-1.4 1.6-2.1 3.1-2.3 0.1-0.1 0.4-0.1 0.7-0.1zm-2.2 4c0 0.5 0.1 0.9 0.1 1.4 0 0.3 0.1 0.5 0.1 0.8 0.1 0.7 0.3 1.3 0.8 1.8 0.8 0.9 2.1 0.8 2.7-0.2 0.2-0.2 0.3-0.5 0.4-0.8 0.3-1.1 0.3-2.3 0.1-3.4-0.1-0.7-0.4-1.4-0.8-2.1-0.5-0.6-1.1-0.9-1.9-0.7-0.7 0.1-1 0.6-1.2 1.3-0.2 0.5-0.3 1.2-0.3 1.9z"/>
	<path class="st1" d="m41.4 8.6h-0.8c-0.5 0-1 0-1.5 0.1-0.6 0.1-0.8 0.4-0.9 1 0 0.2 0 0.4-0.1 0.6h-0.5l-0.1-0.1c0-0.8 0-1.5 0.1-2.3v-0.1h9.5v1 1.3c0 0.1 0 0.2-0.2 0.2h-0.4c0-0.2 0-0.4-0.1-0.6-0.1-0.6-0.3-0.9-0.9-1-0.7-0.1-1.4-0.1-2.2-0.1v0.2 8.3 0.6c0.1 0.5 0.4 0.8 0.9 0.9h0.2c0.4 0 0.4 0 0.3 0.4h-5v-0.4h0.4c0.8-0.1 1.1-0.4 1.1-1.2v-0.3-8.3c0.2 0 0.2-0.1 0.2-0.2z"/>
	<path class="st1" d="m82.4 32.6h0.8c0.1 0 0.1 0.1 0.2 0.1 0.1 0.2 0.1 0.4 0.2 0.6 0.3 0.8 0.8 1 1.6 0.9 0.4-0.1 0.8-0.2 1-0.7s0-0.9-0.3-1.2-0.6-0.6-1-0.8c-0.5-0.4-1-0.7-1.5-1.1-1-0.9-1.2-2.5-0.4-3.6 0.5-0.7 1.2-0.9 1.9-1 0.9-0.1 1.7 0.2 2.6 0.4 0.1 0 0.1 0.1 0.1 0.2v1.6h-0.8s-0.1-0.1-0.1-0.2c-0.1-0.3-0.1-0.5-0.2-0.8-0.2-0.5-0.7-0.7-1.3-0.6-0.5 0.1-1 0.4-1 0.8-0.1 0.5 0.1 0.9 0.4 1.2s0.7 0.5 1.1 0.8 0.9 0.7 1.3 1c1.6 1.2 1.2 3.5-0.5 4.3-0.8 0.4-1.7 0.5-2.6 0.3l-1.2-0.3c-0.1 0-0.2-0.1-0.2-0.2-0.1-0.6-0.1-1.1-0.1-1.7z"/>
	<path class="st1" d="m64.3 17.2c0 0.1 0.1 0.2 0.2 0.3v0.2c-1.1 1.7-3.5 2.2-5.2 1.1-0.9-0.6-1.4-1.4-1.6-2.5-0.2-1.3-0.1-2.6 0.7-3.7 0.7-1.1 1.8-1.6 3.1-1.5 0.8 0 1.5 0.2 2.1 0.8s0.9 1.3 1 2.2v0.5c0 0.2 0 0.2-0.2 0.2h-4.5-0.3c0 0.4 0 0.8 0.1 1.1 0.1 0.5 0.2 0.9 0.4 1.3 0.7 1.4 2.1 1.5 3 0.9 0.4-0.2 0.8-0.6 1.2-0.9zm-4.8-3.1c1.1-0.1 2.2-0.1 3.3-0.2-0.1-0.6-0.2-1.2-0.5-1.7-0.6-0.8-1.8-0.8-2.3 0-0.3 0.6-0.4 1.2-0.5 1.9z"/>
	<path class="st1" d="m95.2 33.8v0.4c0 0.1 0 0.1-0.1 0.1-0.8 0.4-1.7 0.6-2.6 0.4s-1.5-0.8-1.6-1.7c-0.1-0.4-0.1-0.9-0.1-1.3v-4.4-0.3h-1.1v-0.7l0.1-0.1c0.1 0 0.3 0 0.4-0.1 0.7-0.2 1.1-0.6 1.4-1.2 0.1-0.3 0.2-0.7 0.3-1 0-0.1 0.1-0.2 0.2-0.2 0.6 0 0.6 0 0.6 0.6v1.7h2.2c-0.1 0.3-0.2 0.6-0.2 0.9 0 0-0.1 0.1-0.2 0.1h-1.5-0.2v0.2 4.8c0 0.4 0.1 0.8 0.2 1.1 0.1 0.5 0.5 0.7 1 0.8h0.6c0.2 0 0.3 0 0.6-0.1z"/>
	<path class="st1" d="m23.3 28.2c-0.2 0-0.5 0-0.8 0.1-0.1-0.2-0.1-0.5-0.2-0.7s-0.1-0.4-0.2-0.6c-0.2-0.4-0.5-0.6-1-0.6-1.1-0.1-1.8 0.5-2.1 1.7-0.2 0.8-0.2 1.7-0.1 2.6 0 0.6 0.1 1.2 0.4 1.8 0 0.1 0.1 0.2 0.1 0.3 0.7 1.5 2.1 1.4 3 0.9 0.3-0.2 0.6-0.4 0.9-0.7 0.1 0.2 0.2 0.4 0.2 0.6v0.1c-0.7 0.7-1.4 1.3-2.5 1.4-1.9 0.2-3.3-0.7-3.9-2.5-0.5-1.6-0.5-3.1 0.2-4.6 0.6-1.3 1.7-1.9 3.1-2 0.9-0.1 1.8 0.1 2.7 0.4 0.1 0 0.1 0.1 0.1 0.1 0.1 0.4 0.1 1 0.1 1.7z"/>
	<path class="st1" d="m80.3 34.7h-4.8v-0.1c0-0.2 0-0.3 0.3-0.3h0.2c0.5 0 0.7-0.2 0.8-0.7s0.1-1 0.1-1.5v-4.3c0-0.2 0-0.4-0.1-0.6-0.1-0.4-0.3-0.6-0.8-0.7h-0.3c-0.1 0-0.2-0.1-0.2-0.2 0-0.3 0-0.3 0.2-0.3 1-0.1 1.9-0.2 2.9-0.4h0.3v0.3 5.8c0 0.6 0 1.2 0.1 1.7s0.3 0.7 0.8 0.8h0.1c0.4 0.1 0.4 0.1 0.4 0.5z"/>
	<path class="st1" d="m77.8 24c-0.7 0-1.2-0.5-1.2-1.2s0.5-1.2 1.2-1.2 1.2 0.5 1.2 1.2-0.5 1.2-1.2 1.2z"/>
	<path class="st0" d="m49.9 29.7c0-0.7 0-1.3 0.3-2 0.2-0.6 0.6-1.1 1.2-1.2 0.7-0.2 1.3 0.1 1.8 0.6 0.5 0.6 0.8 1.4 0.9 2.2 0.2 1.1 0.2 2.3-0.1 3.4-0.1 0.3-0.2 0.6-0.4 0.9-0.6 0.9-1.8 1-2.6 0.2-0.5-0.5-0.7-1.2-0.9-1.9-0.1-0.8-0.1-1.5-0.2-2.2z"/>
	<path class="st0" d="m27.5 29.7c0-0.7 0.1-1.3 0.3-1.9s0.5-1.1 1.2-1.3c0.8-0.2 1.4 0.1 1.9 0.7s0.7 1.3 0.8 2.1c0.2 1.1 0.2 2.3-0.1 3.4-0.1 0.3-0.2 0.6-0.4 0.8-0.6 1-1.9 1.1-2.7 0.2-0.4-0.5-0.7-1.2-0.8-1.8-0.1-0.3-0.1-0.5-0.1-0.8 0-0.5-0.1-1-0.1-1.4z"/>
	<path class="st0" d="m59.5 14.1c0.1-0.7 0.1-1.3 0.5-1.9 0.5-0.8 1.7-0.9 2.3 0 0.3 0.5 0.5 1 0.5 1.7-1.1 0.1-2.2 0.1-3.3 0.2z"/>
</svg>
