<?xml version="1.0" encoding="UTF-8" standalone="no"?>
<!-- Generator: Adobe Illustrator 19.1.0, SVG Export Plug-In . SVG Version: 6.00 Build 0)  -->
<svg id="Layer_1" style="enable-background:new 0 0 156.1 50" xmlns="http://www.w3.org/2000/svg" xml:space="preserve" viewBox="0 0 156.1 50" version="1.1" y="0px" x="0px" xmlns:xlink="http://www.w3.org/1999/xlink">
<style type="text/css">
	.st0{fill:#BEBEBE;}
	.st1{fill:#454545;}
</style>
	<path id="FT-Pink_2_" d="m50 50h-50v-50h50v50z" class="st0"/>
	<path id="FT_2_" d="m12.8 26.1c0 2.4 0.6 2.6 3.3 2.7v0.9h-10.7v-0.9c2.2-0.1 2.9-0.4 2.9-2.7v-15.4c0-2.4-0.6-2.6-2.8-2.7v-0.9h18.9l0.1 5h-0.9c-0.8-2.5-1.7-3.3-6.1-3.3h-3.5c-1 0-1.3 0.2-1.3 1.2v7.1h1.7c3.5 0 4.3-0.6 4.7-3h0.9v8h-0.9c-0.5-2.7-1.8-3.3-4.7-3.3h-1.7l0.1 7.3zm32.9-19h-19.8l-0.5 5h1.1c0.7-2.4 1.8-3.3 4.2-3.3h2.8v17.3c0 2.4-0.6 2.6-3.2 2.7v0.9h10.9v-0.9c-2.6-0.1-3.2-0.4-3.2-2.7v-17.3h2.8c2.4 0 3.5 0.9 4.2 3.3h1.1l-0.4-5z" class="st1"/>
	<path id="FinancialTimes_2_" d="m61.1 29.6c0 1.2 0.3 1.3 1.7 1.4v0.4h-5.4v-0.4c1.1-0.1 1.4-0.2 1.4-1.4v-7.8c0-1.2-0.3-1.3-1.4-1.4v-0.4h9.5l0.1 2.5h-0.5c-0.4-1.3-0.8-1.7-3.1-1.7h-1.7c-0.5 0-0.6 0.1-0.6 0.6v3.6h1.9c1.8 0 2.2-0.3 2.4-1.5h0.4v4h-0.4c-0.2-1.3-0.9-1.7-2.4-1.7h-1.9v3.8zm11.2 0c0 1.2 0.3 1.3 1.7 1.4v0.4h-5.6v-0.4c1.4-0.1 1.7-0.2 1.7-1.4v-7.8c0-1.2-0.3-1.3-1.7-1.4v-0.4h5.6v0.4c-1.4 0-1.7 0.2-1.7 1.4v7.8zm13.4-7.5c0-1.1-0.3-1.6-1.5-1.7v-0.4h4v0.4c-1.2 0.1-1.5 0.6-1.5 1.7v9.5h-0.6l-7.8-9v6.6c0 1.1 0.3 1.6 1.5 1.7v0.4h-4v-0.3c1.2-0.1 1.5-0.6 1.5-1.7v-7.7c-0.4-0.7-0.8-1-1.5-1.2v-0.4h3.1l6.8 7.8v-5.7zm6.1 5.2l1.7-4.5 1.7 4.5h-3.4zm8.1 4.1v-0.4c-0.9 0-1.1-0.4-1.5-1.4l-4-9.8h-0.5l-4.2 10.1c-0.3 0.7-0.7 0.9-1.4 1.1v0.4h3.6v-0.4c-0.8 0-1.2-0.2-1.2-0.7s0.5-1.7 0.7-2.1h4.1c0.1 0.4 0.7 1.6 0.7 2.1s-0.4 0.7-1.2 0.7v0.4h4.9zm11-9.3c0-1.1-0.3-1.6-1.5-1.7v-0.4h4v0.4c-1.2 0.1-1.5 0.6-1.5 1.7v9.5h-0.6l-7.8-9v6.6c0 1.1 0.3 1.6 1.5 1.7v0.4h-4v-0.3c1.2-0.1 1.5-0.6 1.5-1.7v-7.7c-0.4-0.7-0.8-1-1.5-1.2v-0.4h3.1l6.8 7.8v-5.7zm14.4 6.6c-1.2 2-2.7 3-5.1 3-3.7 0-5.9-2.4-5.9-6.1 0-2.6 2-5.9 6-5.9 1.2 0 2.9 0.7 3.1 0.7 0.3 0 0.4-0.2 0.7-0.7h0.6l0.2 3.8h-0.5c-0.7-1.8-1.9-3-3.8-3-2.7 0-3.8 2.9-3.8 5.1 0 3.1 1.3 5.1 4.1 5.1 2.2 0 3.4-1.6 3.9-2.4l0.5 0.4zm5.5 0.9c0 1.2 0.3 1.3 1.7 1.4v0.4h-5.6v-0.4c1.4-0.1 1.7-0.2 1.7-1.4v-7.8c0-1.2-0.3-1.3-1.7-1.4v-0.4h5.6v0.4c-1.4 0-1.7 0.2-1.7 1.4v7.8zm6.3-2.3l1.7-4.5 1.7 4.5h-3.4zm8.2 4.1v-0.4c-0.9 0-1.1-0.4-1.5-1.4l-4-9.8h-0.6l-4.2 10.1c-0.3 0.7-0.7 0.9-1.4 1.1v0.4h3.6v-0.4c-0.8 0-1.2-0.2-1.2-0.7s0.5-1.7 0.7-2.1h4.1c0.1 0.4 0.7 1.6 0.7 2.1s-0.4 0.7-1.2 0.7v0.4h5zm1 0v-0.4c1.1 0 1.4-0.2 1.4-1.4v-7.8c0-1.2-0.3-1.3-1.4-1.4v-0.4h5.3v0.4c-1.3 0-1.6 0.2-1.6 1.4v8c0 0.7 0.2 0.9 1.5 0.9 2 0 3.2-0.4 4.2-2.4h0.4l-0.8 3h-9zm-86.4 17.9c1.3-0.1 1.6-0.2 1.6-1.4v-8.7h-1.4c-1.3 0-1.8 0.5-2.2 2.1h-0.5l0.3-2.9h10l0.3 2.9h-0.5c-0.4-1.5-0.9-2.1-2.2-2.1h-1.4v8.7c0 1.2 0.3 1.3 1.6 1.4v0.4h-5.5v-0.4zm13.1-1.4c0 1.2 0.3 1.3 1.7 1.4v0.4h-5.7v-0.4c1.4 0 1.7-0.2 1.7-1.4v-7.8c0-1.2-0.3-1.3-1.7-1.4v-0.4h5.6v0.4c-1.4 0-1.7 0.2-1.7 1.4l0.1 7.8zm13.6-9.5h3.9v0.4c-1.1 0-1.4 0.2-1.4 1.4v7.8c0 1.2 0.3 1.3 1.4 1.4v0.4h-5.1v-0.4c1.1-0.1 1.4-0.2 1.4-1.4v-8l-3.8 9.9h-0.5l-3.7-9.9v7.7c0 1.1 0.3 1.6 1.5 1.7v0.4h-4v-0.4c1.2-0.1 1.5-0.6 1.5-1.7v-7.7c0-0.8-0.3-1.1-1.5-1.1v-0.4h4.1l3 7.9 3.2-8zm5.5 11.3v-0.4c1.1-0.1 1.4-0.2 1.4-1.4v-7.8c0-1.2-0.3-1.3-1.4-1.4v-0.4h9.5l0.1 2.5h-0.5c-0.4-1.3-0.8-1.7-3.1-1.7h-1.7c-0.5 0-0.6 0.1-0.6 0.6v3.6h1.9c1.8 0 2.2-0.3 2.4-1.5h0.4v4h-0.4c-0.2-1.3-0.9-1.7-2.4-1.7h-1.9v3.9c0 0.7 0.2 0.9 2.2 0.9s3.2-0.4 4.2-2.4h0.4l-0.8 3h-9.7v0.2zm12-3.5h0.4c0.5 1.5 1.9 3.1 3.6 3.1 1.4 0 2-1 2-1.9 0-2.6-5.9-3.1-5.9-6.3 0-1.6 1.5-2.9 3.3-2.9 1.7 0 2.3 0.6 3.1 0.6 0.3 0 0.5-0.2 0.6-0.6h0.4v3.6h-0.4c-0.5-1.6-1.6-2.8-3.2-2.8-1.3 0-1.7 0.8-1.7 1.6 0 2.3 5.9 2.4 5.9 6.4 0 1.8-1.5 3.2-3.5 3.2s-2.5-0.7-3.3-0.7c-0.3 0-0.5 0.2-0.6 0.6h-0.6l-0.1-3.9z" class="st1"/>
</svg>
