<?xml version="1.0" encoding="UTF-8" standalone="no"?>
<!-- Generator: Adobe Illustrator 19.1.0, SVG Export Plug-In . SVG Version: 6.00 Build 0)  -->
<svg id="Layer_1" style="enable-background:new 0 0 98.2 48.7" xmlns="http://www.w3.org/2000/svg" xml:space="preserve" viewBox="0 0 98.2 48.7" version="1.1" y="0px" x="0px" xmlns:xlink="http://www.w3.org/1999/xlink">
<style type="text/css">
	.st0{fill:#202020;}
	.st1{fill:#FFFFFF;}
	.st2{fill:#7B7B7B;}
	.st3{fill:#595959;}
	.st4{fill:#161616;}
</style>
	<path class="st0" d="m19.5 3871.7h30.4v31h-30.4v-31m2.2 4.8c1.4 6.3 2.6 12.7 3.9 19 0.2 0.8 0.1 1.8 0.8 2.3 1.3 0.2 2.7 0.2 4 0.1 0.7 0 0.9-0.8 1-1.4 0.9-4.5 1.9-9 2.8-13.5 0.1-0.4 0.2-0.8 0.4-1.2 1.1 4.8 2.1 9.7 3.1 14.5 0.1 0.5 0.2 1.2 0.7 1.5 1.4 0.2 2.9 0.2 4.4 0 0.5-0.3 0.5-0.9 0.7-1.5 1.3-6.6 2.6-13.2 4-19.8h-3.8c-1 5.7-1.8 11.5-2.9 17.2-1.3-4.8-2.1-9.8-3.2-14.7-0.2-0.8-0.1-2.1-1.1-2.5-1.1-0.1-2.2-0.1-3.4 0-0.6 0.1-0.8 0.8-0.9 1.3-1 4.9-2.1 9.7-3.1 14.5-0.1 0.5-0.3 0.9-0.4 1.3-1-5.7-2-11.5-2.9-17.2-1.3 0.1-2.7 0.1-4.1 0.1z"/>
	<path class="st1" d="m49.8 3871.7h30.1v31h-30.1v-31m7.7 4.6v3.8h5.2v14.1h-5.2v3.8h14.7v-3.8h-5.2v-14.1h5.2v-3.8h-14.7z"/>
	<path class="st0" d="m79.9 3871.7h30.4v31h-30.4v-31m6.9 4.8v21.3h4.2v-8.3h6.8c0.8-0.1 1.8 0.5 1.8 1.4 0.1 2.3 0.3 4.6 0.4 6.9h4c-0.4-2.6 0.1-5.3-0.6-7.8-0.4-1.3-1.9-1.6-3-2 0.9-0.5 2-0.5 2.6-1.3 0.9-1.1 1-2.7 1-4.1 0-1.6 0-3.4-1-4.8-0.8-1.1-2.4-1.3-3.7-1.3h-12.5z"/>
	<path class="st1" d="m110.3 3871.7h30.2v31h-30.2v-31m5.4 4.6v3.8h2.9v14.1h-2.9v3.8h18.3v-7.5h-4v3.7h-7.2v-5.6h5.7v-3.6h-5.7v-4.9h7v3.3h3.9v-7.1h-18z"/>
	<path class="st0" d="m140.5 3871.7h30.7v31h-30.7v-31m6.8 4.8v21.3h10.6c2.2 0 4.7-0.4 6-2.4 1.5-2.5 1.3-5.5 1.6-8.2-0.3-2.8 0-5.8-1.6-8.2-1.2-1.8-3.6-2.3-5.6-2.4-3.6-0.1-7.3-0.1-11-0.1z"/>
	<path class="st0" d="m57.5 3876.3h14.7v3.8h-5.2v14.1h5.2v3.8h-14.7v-3.8h5.2v-14.1h-5.2v-3.8z"/>
	<path class="st0" d="m115.7 3876.3h18v7.1h-3.9v-3.3h-7v4.9h5.7v3.6h-5.7v5.6h7.2v-3.7h4v7.5h-18.3v-3.8h2.9v-14.1h-2.9v-3.8z"/>
	<path class="st1" d="m21.7 3876.5h4.2c0.9 5.7 1.8 11.5 2.9 17.2 0.2-0.4 0.3-0.9 0.4-1.3 1-4.9 2.1-9.7 3.1-14.5 0.1-0.5 0.3-1.3 0.9-1.3 1.1-0.1 2.2-0.1 3.4 0 0.9 0.4 0.8 1.6 1.1 2.5 1.1 4.9 1.9 9.9 3.2 14.7 1.1-5.7 1.9-11.5 2.9-17.2h3.8c-1.4 6.6-2.7 13.2-4 19.8-0.1 0.5-0.2 1.2-0.7 1.5-1.4 0.2-2.9 0.2-4.4 0-0.5-0.3-0.5-0.9-0.7-1.5-1.1-4.8-2-9.7-3.1-14.5-0.2 0.4-0.3 0.8-0.4 1.2-0.9 4.5-1.9 9-2.8 13.5-0.1 0.5-0.3 1.4-1 1.4-1.3 0.1-2.7 0.1-4-0.1-0.7-0.5-0.6-1.5-0.8-2.3-1.4-6.4-2.7-12.8-4-19.1z"/>
	<path class="st1" d="m86.8 3876.5h12.5c1.3 0 2.8 0.2 3.7 1.3 1 1.4 1 3.2 1 4.8 0 1.4-0.1 2.9-1 4.1-0.6 0.8-1.7 0.9-2.6 1.3 1.2 0.3 2.6 0.6 3 2 0.7 2.6 0.3 5.2 0.6 7.8h-4c-0.1-2.3-0.3-4.6-0.4-6.9 0-0.9-1-1.5-1.8-1.4h-6.8v8.3h-4.2v-21.3m4.2 3.5v6.2c2.5 0 5 0.1 7.6-0.1 1.4-0.1 1.4-1.7 1.4-2.7 0-1.1 0.2-2.6-0.9-3.3-2.7-0.2-5.4 0-8.1-0.1z"/>
	<path class="st1" d="m147.3 3876.5h11c2.1 0.1 4.4 0.6 5.6 2.4 1.5 2.5 1.3 5.5 1.6 8.2-0.3 2.8 0 5.8-1.6 8.2-1.3 2-3.9 2.4-6 2.4h-10.6v-21.2m4.2 3.5v14.3h6.5c1 0 2.3-0.3 2.8-1.3 0.7-1.6 0.5-3.4 0.6-5.1-0.1-2.1 0.2-4.3-0.5-6.4-0.3-1-1.5-1.5-2.5-1.5h-6.9z"/>
	<path class="st0" d="m91 3880c2.7 0 5.4-0.1 8.1 0.1 1 0.7 0.8 2.2 0.9 3.3-0.1 1-0.1 2.6-1.4 2.7-2.5 0.1-5 0-7.6 0.1v-6.2z"/>
	<path class="st0" d="m151.5 3880h6.8c1 0 2.2 0.5 2.5 1.5 0.7 2 0.4 4.3 0.5 6.4-0.1 1.7 0.1 3.5-0.6 5.1-0.5 1-1.7 1.3-2.8 1.3h-6.5c0.1-4.7 0.1-9.5 0.1-14.3z"/>
	<rect y="27.9" x="11.1" height="16" class="st2" width="55.2"/>
		<path class="st1" d="m19.2 30c1.9 0 3.1 1.2 3.7 2.6l-1.9 0.8c-0.3-0.8-1-1.4-1.9-1.4-1.4 0-2.5 1.4-2.5 3.8s1 3.8 2.5 3.8c0.7 0 1.4-0.3 1.7-0.7v-1.7h-2.1v-2h4.3v4.6c-0.9 1.1-2.2 1.8-3.8 1.8-2.9 0-4.8-2.3-4.8-5.8s1.9-5.8 4.8-5.8z"/>
		<path class="st1" d="m29.9 37.3h-1.2v4.1h-2.3v-11.2h4.2c2.1 0 3.4 1.5 3.4 3.5s-1 2.9-1.9 3.2l2 4.5h-2.5l-1.7-4.1zm0.4-5.1h-1.6v3.2h1.6c0.9 0 1.4-0.6 1.4-1.6s-0.6-1.6-1.4-1.6z"/>
		<path class="st1" d="m37.4 30.2h6.4v2h-4.2v2.5h4.1v2h-4.1v2.7h4.2v2h-6.4v-11.2z"/>
		<path class="st1" d="m52.5 39.4h-3.5l-0.5 2h-2.4l3.3-11.2h2.7l3.3 11.2h-2.4l-0.5-2zm-3-2h2.6l-1.3-4.9-1.3 4.9z"/>
		<path class="st1" d="m59.2 32.2h-2.5v-2h7.2v2h-2.5v9.2h-2.3v-9.2z"/>
		<path d="m12.1 14.1h2.3v11.2h-2.3v-11.2z"/>
		<path d="m17.1 22.3c0.6 0.7 1.6 1.2 2.7 1.2 1 0 1.5-0.6 1.5-1.2 0-0.8-0.8-1.2-1.8-1.6-1.4-0.6-3.2-1.2-3.2-3.5 0-1.8 1.4-3.3 3.7-3.3 1.4 0 2.5 0.4 3.4 1.2l-1.1 1.7c-0.7-0.7-1.5-0.9-2.4-0.9-0.8 0-1.3 0.5-1.3 1.1 0 0.7 0.8 1.1 1.8 1.5 1.4 0.6 3.2 1.3 3.2 3.6 0 2-1.3 3.4-3.8 3.4-1.7 0-2.9-0.6-3.8-1.4l1.1-1.8z"/>
		<path d="m12.2 45.9h1.2c0.5 0 0.7 0.3 0.7 0.7s-0.2 0.6-0.4 0.6c0.3 0 0.5 0.3 0.5 0.7s-0.2 0.8-0.7 0.8h-1.2v-2.8zm1 1.1c0.2 0 0.3-0.1 0.3-0.3s-0.1-0.3-0.3-0.3h-0.5v0.6h0.5zm0 1.2c0.2 0 0.3-0.1 0.3-0.3s-0.1-0.3-0.3-0.3h-0.5v0.7h0.5z"/>
		<path d="m15.5 47.7h-0.3v1h-0.6v-2.8h1c0.5 0 0.9 0.4 0.9 0.9s-0.3 0.7-0.5 0.8l0.5 1.1h-0.6l-0.4-1zm0.1-1.3h-0.4v0.8h0.4c0.2 0 0.4-0.2 0.4-0.4s-0.2-0.4-0.4-0.4z"/>
		<path d="m17 45.9h0.6v2.8h-0.6v-2.8z"/>
		<path d="m18.6 46.4h-0.6v-0.5h1.8v0.5h-0.6v2.3h-0.6v-2.3z"/>
		<path d="m21.4 48.2h-0.9l-0.1 0.5h-0.6l0.8-2.8h0.7l0.8 2.8h-0.6l-0.1-0.5zm-0.8-0.5h0.6l-0.2-1.2-0.4 1.2z"/>
		<path d="m22.4 45.9h0.6v2.8h-0.6v-2.8z"/>
		<path d="m24.2 47v1.7h-0.6v-2.8h0.6l0.9 1.6v-1.6h0.6v2.8h-0.5l-1-1.7z"/>
		<path d="m28.6 48.7l-0.2-0.2c-0.2 0.2-0.4 0.2-0.7 0.2-0.4 0-0.8-0.3-0.8-0.8 0-0.4 0.2-0.6 0.5-0.8-0.1-0.2-0.2-0.4-0.2-0.6 0-0.4 0.3-0.7 0.7-0.7 0.3 0 0.6 0.2 0.6 0.6s-0.3 0.6-0.6 0.8c0.1 0.1 0.1 0.2 0.2 0.3s0.1 0.2 0.2 0.3c0.1-0.2 0.2-0.4 0.2-0.5l0.4 0.2c-0.1 0.2-0.2 0.5-0.3 0.7 0.1 0.2 0.3 0.3 0.4 0.6h-0.4zm-0.4-0.5c-0.1-0.2-0.2-0.3-0.2-0.4-0.1-0.1-0.1-0.2-0.2-0.3-0.1 0.1-0.2 0.2-0.2 0.4 0 0.3 0.2 0.4 0.3 0.4s0.2 0 0.3-0.1zm-0.2-1.3c0.2-0.1 0.3-0.2 0.3-0.4s-0.1-0.3-0.2-0.3-0.2 0.1-0.2 0.3c0 0.1 0 0.2 0.1 0.4z"/>
		<path d="m31.1 47v1.7h-0.6v-2.8h0.6l0.9 1.6v-1.6h0.6v2.8h-0.5l-1-1.7z"/>
		<path d="m34.2 45.8c0.7 0 1.2 0.6 1.2 1.5 0 0.8-0.4 1.5-1.2 1.5-0.7 0-1.2-0.6-1.2-1.5 0.1-0.9 0.5-1.5 1.2-1.5zm0 0.5c-0.4 0-0.6 0.4-0.6 1 0 0.5 0.2 1 0.6 1s0.6-0.4 0.6-1-0.2-1-0.6-1z"/>
		<path d="m36.7 47.7h-0.3v1h-0.6v-2.8h1c0.5 0 0.9 0.4 0.9 0.9s-0.3 0.7-0.5 0.8l0.5 1.1h-0.6l-0.4-1zm0.1-1.3h-0.4v0.8h0.4c0.2 0 0.4-0.2 0.4-0.4s-0.2-0.4-0.4-0.4z"/>
		<path d="m38.7 46.4h-0.6v-0.5h1.8v0.5h-0.6v2.3h-0.6v-2.3z"/>
		<path d="m41.8 47.5h-0.9v1.2h-0.6v-2.8h0.6v1.1h0.9v-1.1h0.6v2.8h-0.6v-1.2z"/>
		<path d="m42.9 45.9h1.6v0.5h-1v0.6h1v0.5h-1v0.7h1v0.5h-1.6v-2.8z"/>
		<path d="m45.9 47.7h-0.3v1h-0.6v-2.8h1c0.5 0 0.9 0.4 0.9 0.9s-0.3 0.7-0.5 0.8l0.5 1.1h-0.6l-0.4-1zm0.1-1.3h-0.4v0.8h0.4c0.2 0 0.4-0.2 0.4-0.4s-0.2-0.4-0.4-0.4z"/>
		<path d="m48 47v1.7h-0.6v-2.8h0.6l0.9 1.6v-1.6h0.6v2.8h-0.5l-1-1.7z"/>
		<path d="m51 45.9h0.6v2.8h-0.6v-2.8z"/>
		<path d="m53 47.7h-0.3v1h-0.6v-2.8h1c0.5 0 0.9 0.4 0.9 0.9s-0.3 0.7-0.5 0.8l0.5 1.1h-0.6l-0.4-1zm0.1-1.3h-0.4v0.8h0.4c0.2 0 0.4-0.2 0.4-0.4s-0.1-0.4-0.4-0.4z"/>
		<path d="m54.6 45.9h1.6v0.5h-1v0.6h1v0.5h-1v0.7h1v0.5h-1.6v-2.8z"/>
		<path d="m56.7 45.9h0.6v2.3h0.9v0.5h-1.5v-2.8z"/>
		<path d="m60 48.2h-0.9l-0.1 0.5h-0.6l0.8-2.8h0.7l0.8 2.8h-0.6l-0.1-0.5zm-0.8-0.5h0.6l-0.3-1.2-0.3 1.2z"/>
		<path d="m61.6 47v1.7h-0.6v-2.8h0.6l0.9 1.6v-1.6h0.6v2.8h-0.5l-1-1.7z"/>
		<path d="m63.7 45.9h0.9c0.8 0 1.2 0.6 1.2 1.4s-0.4 1.4-1.2 1.4h-0.9v-2.8zm0.9 2.3c0.4 0 0.6-0.4 0.6-0.9 0-0.6-0.2-0.9-0.6-0.9h-0.3v1.8h0.3z"/>
		<path d="m12.1 0.4h2.3v11.2h-2.3v-11.2z"/>
		<path d="m19 5v6.6h-2.3v-11.2h2.3l3.7 6.4v-6.4h2.3v11.2h-2.2l-3.8-6.6z"/>
		<path d="m29.5 5v6.6h-2.3v-11.2h2.3l3.7 6.4v-6.4h2.3v11.2h-2.2l-3.8-6.6z"/>
		<path d="m42 0.2c2.9 0 4.7 2.5 4.7 5.8s-1.7 5.8-4.7 5.8c-2.9 0-4.7-2.5-4.7-5.8s1.8-5.8 4.7-5.8zm0 2c-1.5 0-2.4 1.6-2.4 3.8s0.8 3.8 2.4 3.8c1.5 0 2.4-1.6 2.4-3.8s-0.9-3.8-2.4-3.8z"/>
		<path d="m47.3 0.4h2.4l2.3 8.6 2.3-8.6h2.4l-3.3 11.2h-2.7l-3.4-11.2z"/>
		<path d="m62.8 9.6h-3.5l-0.5 2h-2.4l3.3-11.2h2.7l3.3 11.2h-2.4l-0.5-2zm-3-2h2.6l-1.3-4.9-1.3 4.9z"/>
		<path d="m68.2 2.4h-2.5v-2h7.2v2h-2.5v9.2h-2.3v-9.2z"/>
		<path d="m74.6 0.4h2.3v11.2h-2.3v-11.2z"/>
		<path d="m83.4 0.2c2.9 0 4.7 2.5 4.7 5.8s-1.7 5.8-4.7 5.8c-2.9 0-4.7-2.5-4.7-5.8s1.8-5.8 4.7-5.8zm0 2c-1.5 0-2.4 1.6-2.4 3.8s0.8 3.8 2.4 3.8c1.5 0 2.4-1.6 2.4-3.8s-0.8-3.8-2.4-3.8z"/>
		<path d="m92.2 5v6.6h-2.2v-11.2h2.3l3.7 6.4v-6.4h2.3v11.2h-2.2l-3.9-6.6z"/>
	<rect x="6.5" height="43.7" class="st3" width="2.8"/>
	<rect x="6.5" height="43.7" class="st3" width="2.8"/>
	<rect y="19.8" x="0" height="4" class="st3" width="6.9"/>
	<polygon points="0.5 5.3 0.5 8.7 5.5 17.6 5.5 13.7" class="st3"/>
	<polygon points="0 0.2 5.5 0.2 5.5 10.4" class="st4"/>
	<polygon points="4.7 18.3 0 18.3 0 9.8" class="st4"/>
	<polygon points="5.5 28.9 5.5 32.2 0.5 42.6 0.5 39" class="st3"/>
	<polygon points="0 25.2 4 25.2 0 33.7" class="st4"/>
	<polygon points="5.5 33.9 5.5 44 0.4 43.9" class="st4"/>
</svg>
